<?xml version="1.0" encoding="iso-8859-1"?>
<!-- Uploaded to: SVG Repo, www.svgrepo.com, Generator: SVG Repo Mixer Tools -->
<svg fill="#000000" height="800px" width="800px" version="1.1" id="Capa_1" xmlns="http://www.w3.org/2000/svg" xmlns:xlink="http://www.w3.org/1999/xlink" 
	 viewBox="0 0 490 490" xml:space="preserve">
<g>
	<path d="M245,176.008c30.169,0,54.708-24.539,54.708-54.708S275.169,66.592,245,66.592s-54.708,24.539-54.708,54.708
		S214.831,176.008,245,176.008z M245,81.905c21.72,0,39.395,17.675,39.395,39.395c0,21.72-17.675,39.395-39.395,39.395
		s-39.395-17.675-39.395-39.395C205.605,99.58,223.28,81.905,245,81.905z"/>
	<path d="M292.792,183.739l-4.972-0.067L245,276.505l-42.82-92.834l-4.972,0.067c-19.103,0.254-55.246,11.484-55.246,52.166v61.706
		h93.303h19.47h93.303v-61.706C348.038,195.223,311.895,183.993,292.792,183.739z M157.275,282.298v-46.394
		c0-3.529,1.032-33.339,35.261-36.584l38.274,82.978H157.275z M332.725,282.298h-73.534l38.266-82.97
		c34.236,3.252,35.268,33.048,35.268,36.577V282.298z"/>
	<polygon points="216.212,185.458 245,249.185 273.789,185.458 245,185.458 	"/>
	<path d="M472.654,19.615H17.346C7.783,19.615,0,27.391,0,36.947v292.328v7.656v38.707c0,9.555,7.783,17.331,17.346,17.331h160.699
		l-7.5,52.427h-34.924v24.988h218.749v-24.988h-34.916l-7.5-52.427h160.699c9.563,0,17.346-7.776,17.346-17.331v-38.707v-7.656
		V36.947C490,27.391,482.217,19.615,472.654,19.615z M186.016,445.397l7.499-52.427h102.971l7.499,52.427H186.016z M474.688,375.638
		c0,1.092-0.935,2.019-2.034,2.019h-162.89H180.236H17.346c-1.099,0-2.034-0.927-2.034-2.019v-31.051h459.375V375.638z
		 M474.688,329.275H15.313V36.947c0-1.092,0.935-2.019,2.034-2.019h455.308c1.099,0,2.034,0.927,2.034,2.019V329.275z"/>
</g>
</svg>